<?xml version="1.0" encoding="UTF-8"?>
<svg id="_레이어_2" data-name="레이어 2" xmlns="http://www.w3.org/2000/svg" viewBox="0 0 205.04 118.46">
  <defs>
    <style>
      .cls-1 {
        fill: #fff;
        stroke-width: 0px;
      }
    </style>
  </defs>
  <g id="_레이어_1-2" data-name="레이어 1">
    <g>
      <g>
        <path class="cls-1" d="m200.76,38.78c-1.49.82-4.1,5.58-9.41,7.8-3.33,1.42-7.95-.19-7.96-3.76,0-1.2,1.13-1.32,1.91-1.56,5.12-1.61,10.25-3.82,15.37-6.76,2.27-1.29,4.39-3.33,4.37-7.99-.02-5.51-5.37-10.36-17.42-5.94-10.63,3.76-19.88,11.97-19.83,22.94.04,8.92,6.66,18.55,19.42,14.41,6.38-1.89,16.35-11.64,16.33-17.26,0-1.34-1.29-2.73-2.78-1.88Zm-13.53-11.61c2.62-.91,4.19.4,4.2,2.95.01,2.55-2.26,3.05-4.17,3.7-1.84.65-4.25,1.9-4.26-.66,0-2.27,1.89-5.19,4.23-5.99Z"/>
        <path class="cls-1" d="m158.88,23.57c3.6.11,6.51-2.95,6.51-6.55,0-3.6-2.92-6.37-6.51-6.48-3.6-.11-6.51,2.5-6.51,6.1,0,3.59,2.92,6.82,6.51,6.92Z"/>
        <path class="cls-1" d="m33.14,24.79c-.09,0-.18,0-.28,0-.37.05-.77.43-1.31.97-1.27,1.28-3.19,3.11-7.65,4.18-6.77,1.68-11.5-1.98-11.5-10.42,0-2.72,1.58-7.61,5.93-9.09,5.35-1.71,7.26,1.11,8.8,3.24,1.17,1.66,2.09,2.97,4.12,2.66.4-.06.77-.16,1.11-.29.31-.12.6-.27.86-.44.36-.23.68-.51.95-.82.93-1.06,1.38-2.51,1.38-3.87,0-.11,0-.22-.01-.33-.01-.52-.04-1.01-.1-1.48-.05-.4-.11-.78-.19-1.14-.74-3.45-2.7-5.14-4.15-4.92-.35.05-.59.16-.87.28-.35.15-.76.33-1.4.45-.53.1-1.21-.07-2.15-.28-1.64-.36-4.13-.87-7.32.13C10.19,6.25,0,20.1,0,30.78c0,10.04,8.49,12.35,18.94,9.08,3.8-1.22,6.56-3.02,8.58-4.3,1.15-.72,1.97-1.22,2.66-1.33,1.98-.32,3.97-4.06,4.38-6.31.05-.28.08-.53.08-.75,0-.96-.48-2.29-1.49-2.38Z"/>
        <path class="cls-1" d="m43.41,32.99l-.25-.75s.08,0,.12,0h.66c.45.81,1.19,2.45,1.39,3.25.26,1.07.39,2.15.32,2.81-.04.38-.08.76-.12,1.14-.11.99-.23,2.01-.24,3.01-.01,1.38.62,1.62,1.04,1.77.24.09.95.14,1.32-.37.2-.28.44-.29.69-1.93.12-.8.15-1.05.1-1.86-.02-.36-.04-.72-.06-1.08,0-.12,0-.23,0-.35.04-.82.26-1.54.69-2.24,0,0,0,0,0,0,.12-.19.24-.37.38-.53,0,0,0,0,0,0,.07-.08.14-.16.21-.24,0,0,0,0,.01-.01.07-.07.14-.14.21-.2.01-.01.03-.02.04-.03.06-.06.13-.11.2-.16.03-.02.05-.04.08-.06.06-.04.11-.08.17-.12.04-.03.09-.05.13-.07.04-.02.08-.05.13-.07.09-.04.18-.08.27-.12.32-.12.21-.11.52-.11.79,0,.88.24,1.52,1.05.1.13.2.26.29.4.04.05.07.1.1.16.05.08.1.16.15.24.1.17.2.35.29.53.05.11.1.22.15.33.01.03.03.06.04.1.04.11.08.22.12.32.01.03.02.07.04.1.04.11.07.22.1.33,0,.02.01.05.02.07.1.38.18.76.23,1.15,0,.02,0,.04,0,.06.01.11.03.23.04.34,0,.04,0,.08.01.13,0,.11.02.22.02.32,0,.05,0,.1,0,.14,0,.11,0,.21,0,.32,0,.04,0,.09,0,.13,0,.22,0,.44-.01.67,0,.03,0,.07,0,.1,0,.09,0,.18-.01.28,0,.07,0,.15-.01.23,0,.08-.01.17-.02.25,0,.09-.01.17-.02.26,0,.08-.01.15-.02.23,0,.1-.02.21-.03.31,0,.06-.01.12-.02.18-.02.16-.04.33-.06.49-.23,1.94-.55,3.89-.87,5.77-.28,1.69-.57,3.43-.79,5.16-.04.32-.07.64-.09.97-.01.14-.02.28-.03.42,0,.12,0,.24-.01.37-.02.51-.01,1.02.02,1.53,0,.01,0,.02,0,.03h0c0,.15.02.29.03.43,0,0,0,0,0,0,.03.32.06.64.1.96.32,2.25,1.29,2.78,2.66,2.89,1.65.12,2.93-.85,3.44-2.61.24-.82.38-1.65.43-2.49,0,0,0,0,0-.01.02-.28.02-.56.02-.85,0,0,0,0,0,0h0c0-.61-.07-1.23-.17-1.85,0-.01,0-.02,0-.03-.05-.28-.11-.56-.18-.85,0-.04-.01-.07-.02-.11-.08-.31-.17-.63-.27-.94-1.57-4.76-1.46-9.77-1.37-14.2,0-.08,0-.18.01-.28,0-.02,0-.04,0-.06,0-.11.02-.22.03-.34,0,0,0,0,0,0,.03-.27.06-.59.11-.92,0,0,0,0,0,0,.18-1.21.7-3.27,1.72-4.65h1.12l-.57.75c-.63.42-1.17,2.16-1.43,3.79,5.63-.84,10.39-3.63,12.51-8.49.76-1.75,1.19-3.76,1.19-6.04,0-1.87-.44-4.32-1.4-6.93-2.38-6.45-7.97-14.21-17.95-15.22-7.02-.68-13.03,2.62-16.48,7.92.07.38.12.77.16,1.18.05.53.09,1.08.09,1.67,0,2.22-.91,4.05-2.39,5.17-.27.21-.57.39-.87.55-.07.66-.1,1.34-.1,2.02,0,1.97.28,3.8.79,5.48.06.2.13.4.2.59.29.84.65,1.64,1.06,2.4.12.22.24.43.36.64,2.01,3.33,5.15,5.85,8.99,7.43-.25-.84-.53-1.59-.87-1.94l-.11-.2Zm6.84-25.55c5.92.46,8.66,12.79,8.66,17.37,0,2.74-1.32,5.2-4.41,4.85-5.47-.59-8.51-12.69-8.51-17.01,0-2.47,1.42-5.4,4.25-5.2Z"/>
        <path class="cls-1" d="m52.33,36.16c-.65-.83-.46-.77-1.15-.61-.48.11-.89.55-1.24,1.03,1,.21.98.27,2.04.36.28.02.56.04.84.06-.15-.26-.29-.59-.49-.84Z"/>
        <path class="cls-1" d="m97.36,41.34c-.51.37-.83.95-.88,1.6-.07.98-.12,1.97-.15,3,1.14-.07,2.24-.24,3.27-.52.07-.7.14-1.42.18-2.12.07-1.33-.31-2.02-1.24-2.25-.37-.09-.8.02-1.18.29Z"/>
        <path class="cls-1" d="m84.28,68.21c-.06-.22-.12-.44-.19-.66-.06-.19-.12-.38-.19-.56-1.76-5.15-6.22-10.53-17.18-10.53h-6.65c.02,1.21-.14,2.41-.48,3.58-.58,2-2.07,3.2-3.94,3.2-.11,0-.23,0-.34-.01-2.03-.16-3.08-1.26-3.4-3.59-.14-1.03-.19-2.11-.15-3.18h-1.54c-1.61,0-4.3.3-4.3,2.28,0,1.19.52,1.41,1.31,1.75,1.09.47,2.45,1.05,2.38,4.23h0s-.41,17.57-.41,17.57c-.1,4.64-1.75,5.1-2.95,5.44-.8.22-1.2.34-1.2,1.54,0,1.82,2.09,2.48,3.49,2.48s2.85-.05,4.28-.15c1.28-.05,2.86-.1,4.33-.1,1.26,0,2.45.04,3.83.08l.54.02c1.59.1,3.4.15,5.56.15,9.49,0,14.58-4.95,16.71-10.79.07-.2.14-.4.21-.6.07-.23.14-.46.21-.69.55-1.91.8-3.88.8-5.78,0-1.48-.14-3.51-.72-5.67Zm-19.79,19.09c-3.02,0-3.55-1.31-3.55-4.05v-18.89c0-1.93.19-3.19,2.69-3.19,5.9,0,8.76,4.62,8.76,14.13s-4.3,12-7.9,12Z"/>
        <path class="cls-1" d="m120.54,69.33c0,.29,0,.58-.02.86-.04.81-.45,1.61-1.15,2.23-.79.71-1.83,1.11-2.82,1.11-.08,0-.15,0-.23,0-1.09-.07-2.41-.75-2.52-3.6,0-.08,0-.16-.01-.24-.02-.29-.03-.6.01-.91.1-.65.19-1.3.29-1.96.26-1.84.54-3.74.92-5.6.04-.17.06-.34.09-.51-.74-.68-1.55-1.3-2.44-1.86-.05.59-.23,1.06-.58,1.38-.44.41-1.1.58-1.96.49-.72-.07-1.22-.3-1.53-.71-.34-.45-.43-1.07-.27-1.97.06-.36.14-.73.21-1.09-1.77-.54-3.76-.86-5.97-.86-1.93,0-3.76.23-5.48.66.05.35.09.71.12,1.06.1,1.05.04,2.17-.16,3.32-.28,1.62-1.5,2.66-3.06,2.66-.09,0-.17,0-.26,0-1.76-.13-2.9-1.34-2.9-3.09,0-.36,0-.76.02-1.17-2.7,1.86-4.8,4.38-6.07,7.39.85,2.63,1.05,5.17,1.05,6.95,0,2.33-.36,4.76-1.16,7.07,2.67,6.73,9.22,11.26,17.28,11.26s15.9-4.4,18.6-12.03c.61-1.72.95-3.6.95-5.63,0-1.42-.29-3.25-.94-5.21Zm-16.08,16.15c-5.85,0-8.91-12.49-8.91-16.81,0-2.82,1.63-5.83,4.66-5.83,6.28,0,9.07,12.18,9.07,16.81,0,2.69-1.26,5.83-4.81,5.83Z"/>
        <path class="cls-1" d="m71.18,29.45c2.94,7.16,9.49,13.02,17.32,15.45,1.14.35,2.27.61,3.38.79,0-.01,0-.03,0-.04-.09-1.19-.38-1.97-.88-2.32-.37-.26-.88-.29-1.53-.11-1.79.5-2.9.2-3.75-.83l.74-.3c.7.79,1.54.71,2.79.34.34-.1.66-.14.96-.14.48,0,.9.13,1.26.37.71.5,1.12,1.49,1.23,2.93,0,.07,0,.14.01.22.01.18.02.37.04.56,0,.02,0,.05,0,.07.01.17.02.34.03.51,0,.04,0,.08,0,.11,0,.16.02.32.02.48,0,.05,0,.11,0,.16,0,.15.01.3.02.45,0,.07,0,.13,0,.2,0,.14,0,.28,0,.43,0,.08,0,.15,0,.23,0,.13,0,.27,0,.4,0,.09,0,.17,0,.26,0,.13,0,.26,0,.39,0,.09,0,.18,0,.27,0,.12,0,.25-.01.38,0,.1,0,.2-.01.3,0,.12-.01.24-.02.36,0,.11-.01.21-.02.32,0,.11-.02.23-.02.34,0,.11-.02.22-.03.34-.01.11-.02.22-.03.33-.01.12-.03.23-.04.35-.01.11-.02.22-.04.32-.02.12-.04.25-.05.37-.01.1-.03.2-.04.31-.02.13-.05.26-.07.4-.02.09-.03.19-.05.28-.03.15-.06.3-.09.45-.02.08-.03.15-.05.23-.05.23-.1.45-.16.68-.06.25-.12.5-.16.75-.01.07-.02.13-.04.2-.04.21-.07.41-.09.62,0,.05-.01.09-.02.14-.07.56-.11,1.11-.13,1.64,0,.03,0,.06,0,.08,0,0,0,0,0,0,0,.11,0,.21-.01.32,0,0,0,0,0,0,0,.03,0,.07,0,.1,0,.12,0,.24,0,.35h0c0,.15,0,.3,0,.44,0,1.31.82,2.18,2.15,2.28,1.27.1,2.23-.69,2.46-1.98.19-1.07.24-2.14.15-3.11-.08-.91-.23-1.83-.36-2.72-.18-1.21-.38-2.46-.43-3.71-.02-.51-.04-1-.05-1.49-.03-.91-.04-1.8-.03-2.66,0,0,0-.02,0-.03,0-.45,0-.89.02-1.32h0c.01-.47.03-.93.05-1.4,0-.11.01-.22.02-.33.02-.46.05-.91.08-1.36.07-.89.51-1.69,1.21-2.2.58-.42,1.26-.58,1.86-.43,1.32.33,1.95,1.37,1.86,3.08-.02.42-.06.85-.09,1.28-.02.18-.03.36-.05.55-.04.38-.08.76-.12,1.14-.09.82-.18,1.67-.23,2.5-.04.61.09,1.09.37,1.39.23.25.57.36,1.01.37.42,0,.75-.12.97-.35.26-.27.38-.73.35-1.32-.06-1.06-.22-2.15-.37-3.2-.05-.36-.11-.73-.16-1.09,0-.06-.02-.12-.02-.19,0-.04,0-.07-.01-.11,0-.03,0-.06-.01-.1,0-.03,0-.06-.01-.1,0-.04,0-.08-.01-.11,0-.03,0-.06,0-.1,0-.04,0-.08,0-.12,0-.03,0-.07,0-.1,0-.04,0-.08,0-.12,0-.03,0-.07,0-.1,0-.04,0-.08,0-.12,0-.03,0-.07,0-.1,0-.04,0-.08,0-.12,0-.03,0-.07,0-.1,0-.04,0-.08.02-.12,0-.03.01-.07.02-.1,0-.04.02-.08.03-.12,0-.03.02-.06.02-.1.01-.04.02-.08.04-.12.01-.03.02-.06.03-.09.01-.04.03-.08.05-.11.01-.03.03-.06.04-.09.02-.04.04-.08.06-.11.02-.03.03-.06.05-.09.02-.04.05-.07.08-.11.02-.03.04-.05.06-.08.03-.04.07-.07.1-.11.02-.02.04-.05.07-.07.04-.04.09-.08.13-.11.02-.02.04-.04.07-.06.07-.06.15-.11.23-.16.95-.59,1.32-1.44,1.38-2.53l.8.04c-.12,1.18-.45,2.37-1.76,3.18-.7.44-.78,1.12-.69,2.01,3.32-2.04,5.44-5.64,5.44-10.77,0-6.49-5.37-20.64-19.34-25.03-8.37-2.61-15.32.02-18.18,6.17,1.26,3.15,1.81,6.08,1.8,8.09,0,2.73-.57,5.06-1.56,7.02Zm15.6-14.45c5.92,1.8,8.66,14.51,8.66,19.11,0,2.74-1.32,4.99-4.41,4.02-5.47-1.71-8.51-14.66-8.51-18.97,0-2.48,1.42-5.02,4.25-4.16Z"/>
        <path class="cls-1" d="m167.3,56.32c-.26-.12-.52-.24-.8-.39-.05-.03-.11-.06-.16-.08-1.19-.61-1.68-1.19-1.68-9.62v-5.01c0-4.14.09-8.29,1.11-9.52.48-.57,1.08-.93,1.6-1.24.89-.54,1.4-.88,1.4-1.75,0-2.59-4.62-2.72-7.68-2.8-.42-.01-.81-.02-1.16-.04-.21.02-.6.02-1.33.01-.34,0-.74,0-1.19,0-2.6,0-6.7.15-8.03,1.46-.27.27-.4.56-.4.91,0,1.01.66,1.52,1.49,2.17.52.4,1.1.86,1.57,1.49.58.8,1.14,2.14,1.14,8.95v5.01c0,7.09-.49,9.06-1.22,9.84-.07.08-.15.15-.24.22-.03.02-.05.04-.08.06-.06.05-.12.09-.18.13-.03.02-.06.04-.09.06-.08.05-.16.1-.24.14-.11.06-.22.12-.34.18-.78.41-1.25.7-1.25,1.47,0,.12.01.23.03.34,0,.03.01.06.02.09.02.1.05.19.08.28,0,.01,0,.02.01.03.04.1.09.2.15.29.01.02.03.05.05.07.05.08.11.15.17.23.01.02.02.03.04.05.08.09.16.17.25.25.02.02.04.04.07.06.08.07.16.13.24.19.02.02.04.03.06.05.1.07.21.14.33.21.02.01.05.03.07.04.1.06.2.11.31.16.03.01.05.03.08.04.13.06.26.12.39.17.02,0,.04.01.06.02.12.05.24.1.37.14.03,0,.05.02.08.03.14.05.29.1.44.14,0,0,0,0,0,0,.15.04.3.09.45.13.02,0,.04.01.07.02.31.08.63.15.95.21.01,0,.03,0,.04,0,.69.13,1.36.22,1.96.28,0,0,0,0,0,0,.1,0,.2.02.29.03,0,0,.01,0,.02,0,.09,0,.18.01.26.02.01,0,.02,0,.03,0,.08,0,.15,0,.23.01.01,0,.03,0,.04,0,.07,0,.13,0,.2,0,.02,0,.03,0,.05,0,.08,0,.15,0,.22,0,5.53.11,9.05-.53,10.45-1.91.6-.59.68-1.2.68-1.71,0-.94-.48-1.2-1.47-1.66Z"/>
        <path class="cls-1" d="m147.44,59.71c-.61.52-1.47.68-2.34.68-.66,0-1.32-.09-1.87-.19-.06-.01-.13-.02-.19-.03.02.42.1.86.19,1.29l.02.08c.09.44.19.87.29,1.31,0,.03.01.06.02.09,3.41,1.9,4.29,6.14,8.18,6.14,2.73,0,4-2.53,4-5.01,0-.52-.08-1.14-.22-1.81-2.63-.33-6.79-1.32-6.79-4.25,0-.58.19-1,.47-1.32-.34.11-.67.23-.99.3.04.23.06.47.06.73,0,.87-.28,1.55-.82,2Z"/>
        <path class="cls-1" d="m149.91,73.37c-1.8,0-6.07.12-8.48,1.46-.5.25-1.3.36-1.7,2.04-.03.15-.05.3-.05.46,0,4.66,5.32.56,5.32,4.76,0,1.82-1.32,3.14-3.09,3.14-3.24,0-9.32-3.75-9.32-14.18,0-3.52,1.23-6.3,3.31-7.79.17-1,.32-2.02.4-3.02.04-.53,0-1-.08-1.41-.54-.12-1.08-.24-1.63-.36-1.38-.32-1.92-.56-2.68-1.49-5.14,1.84-9.26,5.57-11.21,10.48,1.1,2.65,1.58,5.21,1.58,7.08,0,2.47-.48,4.73-1.32,6.76,3.06,7,10.43,11.32,18.61,11.32,7.19,0,14.33-3.54,16.3-10.94.35-1.32.46-1.57,1.77-1.72,1.22-.2,2.33-1.11,2.33-2.43,0-1.47-.56-4.15-10.08-4.15Z"/>
        <path class="cls-1" d="m105.96,17.23c0,1.27.48,1.72,1.16,2.34.81.75,1.81,1.68,2.18,4.25.52,3.04.51,6.41.51,9.37v.72c0,3.03-.06,6.21-.51,8.87-.37,2.41-1.45,2.83-2.24,3.13-.59.23-.89.34-.89,1.26s.31,1.97,2.92,3.32c-.19-.66-.5-1.25-.94-1.79l-.92-1.14,1.47.54c.24.4.92,1.49.98,1.63.02.05.04.1.06.15.04.12.08.25.12.37.02.05.03.11.05.16.05.17.09.35.12.53,0,0,0,0,0,0,.13.77.14,1.61.03,2.55-.04.31-.09.63-.15.97-.11.55-.23,1.1-.35,1.65-.08.37-.16.74-.24,1.11,0,0,0,0,0,0-.07.32-.13.65-.19.97-.11.64-.07,1.08.12,1.33.16.21.48.34.96.39.62.06,1.07-.03,1.32-.27.24-.23.36-.63.34-1.19-.03-.69-.16-1.37-.3-2.08-.08-.38-.15-.77-.21-1.15v-.07c-.08-.47-.16-.95-.12-1.44.03-.33.1-.63.21-.89.07-.17.17-.33.27-.46.16-.2.36-.37.6-.49.1-.05.2-.09.32-.13.11-.03.23-.06.35-.08.14-.02.27-.03.4-.03.11,0,.22,0,.32.02.04,0,.07.01.1.02.07.01.13.03.2.05.04.01.08.03.12.04.05.02.11.04.16.07.04.02.08.04.11.06.05.03.09.06.14.09.04.03.07.05.11.08.04.03.08.07.12.11.03.03.07.07.1.11.04.04.07.09.1.13.03.04.06.08.09.12.03.05.06.11.09.16.02.05.05.09.07.14,0,0,0,0,0,0,.05.11.09.22.13.34.89,2.72,1.05,5.4.47,8.22,0,0,0,0,0,0,0,0,0,.01,0,.02-.37,1.82-.65,3.7-.91,5.52-.09.66-.19,1.31-.29,1.96-.03.23-.02.48,0,.74,0,.09,0,.17.01.26.1,2.71,1.35,2.79,1.76,2.82.84.06,1.77-.29,2.46-.9.54-.48.85-1.07.88-1.67.01-.26.02-.51.02-.77,0-.05,0-.1,0-.15,0-.21,0-.41,0-.62,0-.03,0-.07,0-.1,0-.22-.01-.45-.02-.67,0-.01,0-.03,0-.04-.01-.24-.03-.49-.04-.73,0,0,0,0,0,0h0c-.07-.98-.17-1.95-.28-2.89-.12-1.06-.31-2.15-.49-3.19-.23-1.35-.47-2.74-.58-4.13-.1-1.24.15-2.26.71-3,.11-.15.24-.29.38-.41,0,0,.02-.02.03-.03.12-.11,1.18-.59,1.62-.8l1.31.48-1.24.33c-.47.13-.85.34-1.15.61,2.1.39,3.48.36,4.09-.09.28-.2.39-.5.39-.98,0-1.09-.73-1.9-1.5-2.76-.83-.93-1.69-1.89-1.69-3.26v-1.06c0-1.05.09-2.1.73-2.58.22-.16.47-.24.76-.24.17,0,.35.03.55.08.94.27,2.09,2.1,3.5,4.45.36.6.66,1.11.88,1.43,1.11,1.76,2.22,3.49,3.32,5.21l.2.29c1.4,2.07,1.75,2.57,2.64,2.88.01,0,.02,0,.03.01.07.02.15.05.23.07.02,0,.03,0,.05.01.08.02.17.04.26.07.02,0,.04,0,.05.01.11.03.22.05.34.08.36.08.71.16,1.06.23-.34-.5-.84-.84-1.52-1.03l-1.24-.33,1.15-.42c1.33.11,2.39,1.37,2.64,2.01.1.27.18.56.23.88.06.4.07.82.03,1.29-.06.8-.17,1.61-.3,2.4-.09.58-.19,1.16-.29,1.73-.18,1.05-.13.11-.25,1.18-.22,1.92-.43,3.96-.33,5.98.03.59.34,1.18.88,1.67.68.61,1.63.95,2.46.9.41-.03,1.66-.11,1.76-2.82,0-.09,0-.17.01-.26.02-.26.03-.51,0-.74-.1-.66-.4-1.32-.56-1.96-.24-.97-.55-1.57-.7-2.51-.13-.84.03.02-.14-.8-.01-.07-.03-.15-.04-.22-.19-.94-.3-1.86-.33-2.78-.02-.59,0-1.17.05-1.76l.78.41c-.03.37.04.88,0,1.25,0,.03,0,.06-.01.09-.06.5.18,1,.12,1.49.05.38.11.75.19,1.13.02.11.04.23.07.34.14.71.27,1.42.38,2.13.03.17.06.34.08.51.03.01.05.02.08.03.12.04.26.07.4.09.07,0,.15.02.23.02.89.05,1.5-.22,1.79-.84.12-.25.18-.55.19-.92,0-.18,0-.38-.02-.59-.07-.73-.23-1.44-.39-2.16-.05-.2-.09-.4-.14-.59,0-.04-.02-.08-.03-.12-.07-.32-.15-.64-.21-.96-.03-.14-.05-.27-.08-.41-.07-.37-.13-.74-.14-1.11,0-.04,0-.09,0-.13,0-.13,0-.25.02-.37.01-.11.03-.21.05-.31,0-.04.01-.08.02-.12.07-.27.17-.52.32-.72.08-.1.17-.19.27-.27.14-.1.3-.18.49-.24v.42c-.24.1-.57.34-.7.99.09.02.19.03.28.05,1.77.31,2.94.21,3.55-.31.36-.3.53-.75.53-1.38,0-.12,0-.23-.02-.34,0,0,0,0,0-.01-.14-1.49-1.17-2.16-2.35-2.92-.77-.5-1.57-1.01-2.16-1.8v-.02c-2.69-3.92-5.52-8.14-8.42-12.56l-.02-.04-.3-.58c-.93-1.8-1.12-2.17-.91-3.44.29-1.73,2.86-3.47,4.57-4.62.44-.3.82-.55,1.03-.72.7-.56,1.57-.68,2.33-.78,1.38-.19,2.38-.33,2.38-2.69,0-2.83-4.4-3.78-7.03-4.35-.36-.08-.68-.15-.96-.21-.24-.05-.54-.12-.88-.19-2.03-.46-5.8-1.31-7.19-.2-.36.29-.54.71-.54,1.28,0,.48.18.89.38,1.32.21.48.43.97.43,1.58,0,1.07-2.09,3.31-3.53,4.39-1.01.75-1.8,1.05-2.36.89-.83-.24-1.25-1.18-1.25-2.8,0-3.81,1.16-4.47,2-4.95.5-.29.78-.44.78-1.29,0-3.03-4.57-4.45-7.03-5.21l-.34-.1c-6.63-2.08-8.95-1.82-9.73-1.24-.36.27-.38.62-.38,1.02v.1Z"/>
      </g>
      <g>
        <path class="cls-1" d="m29.05,110.93h-3.35v-2.24c0-.65-.04-1.06-.11-1.22-.07-.16-.23-.24-.47-.24-.28,0-.45.1-.52.29-.07.2-.11.62-.11,1.27v5.98c0,.63.04,1.03.11,1.22s.24.29.5.29.41-.1.49-.29c.08-.19.12-.64.12-1.35v-1.62h3.35v.5c0,1.33-.09,2.28-.28,2.83-.19.56-.6,1.05-1.25,1.46-.64.42-1.44.63-2.38.63s-1.79-.18-2.42-.53c-.64-.35-1.06-.85-1.26-1.47-.21-.63-.31-1.57-.31-2.83v-3.76c0-.93.03-1.62.1-2.09.06-.46.25-.91.57-1.34.31-.43.75-.77,1.31-1.01.56-.25,1.2-.37,1.93-.37.99,0,1.8.19,2.44.57s1.06.86,1.26,1.42c.2.57.3,1.45.3,2.65v1.22Z"/>
        <path class="cls-1" d="m38.87,112.86c0,1.29-.03,2.21-.09,2.75-.06.54-.25,1.03-.57,1.47s-.75.79-1.3,1.03c-.55.24-1.18.36-1.91.36s-1.31-.11-1.86-.34c-.55-.23-.99-.56-1.32-1.01-.33-.45-.53-.94-.6-1.47-.06-.53-.1-1.46-.1-2.78v-2.2c0-1.29.03-2.21.09-2.75.06-.54.25-1.03.57-1.47.32-.44.75-.79,1.3-1.03.55-.24,1.18-.36,1.91-.36.69,0,1.31.11,1.86.34.55.23.99.56,1.32,1.01.33.45.53.94.6,1.47s.1,1.46.1,2.78v2.2Zm-3.35-4.23c0-.6-.03-.98-.1-1.15-.07-.17-.2-.25-.41-.25-.18,0-.31.07-.4.2-.09.13-.14.53-.14,1.2v6.01c0,.75.03,1.21.09,1.38.06.17.2.26.43.26s.37-.1.44-.3c.06-.2.1-.68.1-1.44v-5.91Z"/>
        <path class="cls-1" d="m48.74,112.86c0,1.29-.03,2.21-.09,2.75-.06.54-.25,1.03-.57,1.47s-.75.79-1.3,1.03c-.55.24-1.18.36-1.91.36s-1.31-.11-1.86-.34c-.55-.23-.99-.56-1.32-1.01-.33-.45-.53-.94-.6-1.47-.06-.53-.1-1.46-.1-2.78v-2.2c0-1.29.03-2.21.09-2.75.06-.54.25-1.03.57-1.47.32-.44.75-.79,1.3-1.03.55-.24,1.18-.36,1.91-.36.69,0,1.31.11,1.86.34.55.23.99.56,1.32,1.01.33.45.53.94.6,1.47s.1,1.46.1,2.78v2.2Zm-3.35-4.23c0-.6-.03-.98-.1-1.15-.07-.17-.2-.25-.41-.25-.18,0-.31.07-.4.2-.09.13-.14.53-.14,1.2v6.01c0,.75.03,1.21.09,1.38.06.17.2.26.43.26s.37-.1.44-.3c.06-.2.1-.68.1-1.44v-5.91Z"/>
        <path class="cls-1" d="m58.94,105.32l-1.92,5.81,2.1,7.06h-3.46l-1.36-5.51v5.51h-3.35v-12.87h3.35v5l1.49-5h3.14Z"/>
        <path class="cls-1" d="m64.02,105.32v12.87h-3.35v-12.87h3.35Z"/>
        <path class="cls-1" d="m66.34,105.32h5.58v2.57h-2.23v2.44h2.09v2.45h-2.09v2.83h2.46v2.57h-5.8v-12.87Z"/>
        <path class="cls-1" d="m86.41,113.3v2.17l-.9.57,1.12,2.15h-2.97l-.39-.71c-1,.66-1.94.98-2.83.98s-1.65-.31-2.15-.93c-.5-.62-.75-1.37-.75-2.24,0-.7.15-1.25.44-1.65.3-.4.74-.72,1.34-.97-.85-.61-1.27-1.43-1.27-2.47,0-.9.3-1.62.91-2.16.6-.55,1.44-.82,2.5-.82.95,0,1.7.27,2.25.8.55.54.82,1.22.82,2.04,0,.87-.33,1.64-1,2.31l1.13,2.05,1.75-1.13Zm-4.23,2.72l-1.04-1.74c-.4.36-.6.75-.6,1.17,0,.3.06.53.19.68s.31.23.55.23c.26,0,.56-.11.9-.34Zm-.72-4.97c.36-.47.54-.93.54-1.36,0-.19-.05-.36-.16-.51-.11-.15-.25-.23-.44-.23-.18,0-.31.06-.4.18-.09.12-.13.3-.13.53,0,.5.2.96.6,1.39Z"/>
        <path class="cls-1" d="m92.13,105.32h3.37c.91,0,1.61.07,2.1.21s.86.35,1.1.62.41.6.5.98.13.98.13,1.78v1.12c0,.82-.09,1.42-.25,1.8-.17.38-.48.66-.93.87-.45.2-1.05.3-1.78.3h-.9v5.18h-3.35v-12.87Zm3.35,2.2v3.27c.1,0,.18,0,.25,0,.31,0,.52-.08.64-.23.12-.15.18-.46.18-.94v-1.06c0-.44-.07-.73-.21-.86-.14-.13-.42-.2-.86-.2Z"/>
        <path class="cls-1" d="m108.92,112.86c0,1.29-.03,2.21-.09,2.75-.06.54-.25,1.03-.57,1.47s-.75.79-1.3,1.03c-.55.24-1.18.36-1.91.36s-1.31-.11-1.86-.34c-.55-.23-.99-.56-1.32-1.01-.33-.45-.53-.94-.6-1.47-.06-.53-.1-1.46-.1-2.78v-2.2c0-1.29.03-2.21.09-2.75.06-.54.25-1.03.57-1.47.32-.44.75-.79,1.3-1.03.55-.24,1.18-.36,1.91-.36.69,0,1.31.11,1.86.34.55.23.99.56,1.32,1.01.33.45.53.94.6,1.47s.1,1.46.1,2.78v2.2Zm-3.35-4.23c0-.6-.03-.98-.1-1.15-.07-.17-.2-.25-.41-.25-.18,0-.31.07-.4.2-.09.13-.14.53-.14,1.2v6.01c0,.75.03,1.21.09,1.38.06.17.2.26.43.26s.37-.1.44-.3c.06-.2.1-.68.1-1.44v-5.91Z"/>
        <path class="cls-1" d="m111.14,105.32h3.37c.91,0,1.61.07,2.1.21s.86.35,1.1.62.41.6.5.98.13.98.13,1.78v1.12c0,.82-.09,1.42-.25,1.8-.17.38-.48.66-.93.87-.45.2-1.05.3-1.78.3h-.9v5.18h-3.35v-12.87Zm3.35,2.2v3.27c.1,0,.18,0,.25,0,.31,0,.52-.08.64-.23.12-.15.18-.46.18-.94v-1.06c0-.44-.07-.73-.21-.86-.14-.13-.42-.2-.86-.2Z"/>
        <path class="cls-1" d="m131.94,110.93h-3.35v-2.24c0-.65-.04-1.06-.11-1.22-.07-.16-.23-.24-.47-.24-.28,0-.45.1-.52.29-.07.2-.11.62-.11,1.27v5.98c0,.63.04,1.03.11,1.22s.24.29.5.29.41-.1.49-.29c.08-.19.12-.64.12-1.35v-1.62h3.35v.5c0,1.33-.09,2.28-.28,2.83-.19.56-.6,1.05-1.25,1.46-.64.42-1.44.63-2.38.63s-1.79-.18-2.42-.53c-.64-.35-1.06-.85-1.26-1.47-.21-.63-.31-1.57-.31-2.83v-3.76c0-.93.03-1.62.1-2.09.06-.46.25-.91.57-1.34.31-.43.75-.77,1.31-1.01.56-.25,1.2-.37,1.93-.37.99,0,1.8.19,2.44.57s1.06.86,1.26,1.42c.2.57.3,1.45.3,2.65v1.22Z"/>
        <path class="cls-1" d="m141.73,105.32v8.6c0,.97-.03,1.66-.1,2.05-.06.39-.25.8-.56,1.22-.31.42-.72.73-1.24.95-.51.21-1.11.32-1.81.32-.77,0-1.45-.13-2.03-.38s-1.03-.59-1.32-.99c-.29-.41-.46-.84-.52-1.29s-.08-1.41-.08-2.86v-7.61h3.35v9.65c0,.56.03.92.09,1.08.06.16.18.23.37.23.21,0,.35-.09.41-.26.06-.17.09-.58.09-1.22v-9.48h3.35Z"/>
        <path class="cls-1" d="m147.34,105.32v10.29h2.03v2.57h-5.38v-12.87h3.35Z"/>
        <path class="cls-1" d="m156.73,105.32v2.57h-1.99v10.29h-3.35v-10.29h-1.98v-2.57h7.31Z"/>
        <path class="cls-1" d="m166.08,105.32v8.6c0,.97-.03,1.66-.1,2.05-.06.39-.25.8-.56,1.22-.31.42-.72.73-1.24.95-.51.21-1.11.32-1.81.32-.77,0-1.45-.13-2.03-.38s-1.03-.59-1.32-.99c-.29-.41-.46-.84-.52-1.29s-.08-1.41-.08-2.86v-7.61h3.35v9.65c0,.56.03.92.09,1.08.06.16.18.23.37.23.21,0,.35-.09.41-.26.06-.17.09-.58.09-1.22v-9.48h3.35Z"/>
        <path class="cls-1" d="m168.35,105.32h2.37c1.58,0,2.65.06,3.21.18.56.12,1.01.43,1.37.93.35.5.53,1.3.53,2.4,0,1-.12,1.67-.37,2.02-.25.34-.74.55-1.47.62.66.16,1.11.38,1.33.66.23.28.37.53.43.76.06.23.08.87.08,1.9v3.39h-3.11v-4.28c0-.69-.05-1.12-.16-1.28-.11-.16-.39-.25-.85-.25v5.8h-3.35v-12.87Zm3.35,2.2v2.86c.38,0,.64-.05.79-.15.15-.1.23-.44.23-1.01v-.71c0-.41-.07-.68-.22-.8-.15-.13-.41-.19-.8-.19Z"/>
        <path class="cls-1" d="m178.09,105.32h5.58v2.57h-2.23v2.44h2.09v2.45h-2.09v2.83h2.46v2.57h-5.8v-12.87Z"/>
      </g>
    </g>
  </g>
</svg>